<svg width="346" height="138" viewBox="0 0 346 138" fill="none" xmlns="http://www.w3.org/2000/svg">
<g filter="url(#filter0_d_373_13158)">
<rect x="27" y="16" width="292" height="84" rx="12" fill="white"/>
</g>
<path d="M121.416 48V39.418H118.056V38.2H126.162V39.418H122.802V48H121.416ZM129.903 48.084C129.157 48.084 128.494 47.9207 127.915 47.594C127.337 47.2673 126.879 46.8193 126.543 46.25C126.207 45.6713 126.039 45.018 126.039 44.29C126.039 43.5527 126.207 42.8993 126.543 42.33C126.879 41.7607 127.337 41.3173 127.915 41C128.494 40.6733 129.157 40.51 129.903 40.51C130.641 40.51 131.299 40.6733 131.877 41C132.465 41.3173 132.923 41.7607 133.249 42.33C133.585 42.89 133.753 43.5433 133.753 44.29C133.753 45.0273 133.585 45.6807 133.249 46.25C132.923 46.8193 132.465 47.2673 131.877 47.594C131.299 47.9207 130.641 48.084 129.903 48.084ZM129.903 46.908C130.379 46.908 130.804 46.8007 131.177 46.586C131.56 46.3713 131.859 46.068 132.073 45.676C132.288 45.2747 132.395 44.8127 132.395 44.29C132.395 43.758 132.288 43.3007 132.073 42.918C131.859 42.526 131.56 42.2227 131.177 42.008C130.804 41.7933 130.379 41.686 129.903 41.686C129.427 41.686 129.003 41.7933 128.629 42.008C128.256 42.2227 127.957 42.526 127.733 42.918C127.509 43.3007 127.397 43.758 127.397 44.29C127.397 44.8127 127.509 45.2747 127.733 45.676C127.957 46.068 128.256 46.3713 128.629 46.586C129.003 46.8007 129.427 46.908 129.903 46.908ZM138.16 48.084C137.413 48.084 136.835 47.8833 136.424 47.482C136.013 47.0807 135.808 46.5067 135.808 45.76V38.956H137.152V45.704C137.152 46.1053 137.25 46.4133 137.446 46.628C137.651 46.8427 137.941 46.95 138.314 46.95C138.734 46.95 139.084 46.8333 139.364 46.6L139.784 47.566C139.579 47.7433 139.331 47.874 139.042 47.958C138.762 48.042 138.468 48.084 138.16 48.084ZM134.548 41.686V40.58H139.28V41.686H134.548ZM146.015 48V46.432L145.945 46.138V43.464C145.945 42.8947 145.777 42.456 145.441 42.148C145.114 41.8307 144.619 41.672 143.957 41.672C143.518 41.672 143.089 41.7467 142.669 41.896C142.249 42.036 141.894 42.2273 141.605 42.47L141.045 41.462C141.427 41.154 141.885 40.9207 142.417 40.762C142.958 40.594 143.523 40.51 144.111 40.51C145.128 40.51 145.912 40.7573 146.463 41.252C147.013 41.7467 147.289 42.5027 147.289 43.52V48H146.015ZM143.579 48.084C143.028 48.084 142.543 47.9907 142.123 47.804C141.712 47.6173 141.395 47.3607 141.171 47.034C140.947 46.698 140.835 46.32 140.835 45.9C140.835 45.4987 140.928 45.1347 141.115 44.808C141.311 44.4813 141.623 44.22 142.053 44.024C142.491 43.828 143.079 43.73 143.817 43.73H146.169V44.696H143.873C143.201 44.696 142.748 44.808 142.515 45.032C142.281 45.256 142.165 45.5267 142.165 45.844C142.165 46.208 142.309 46.502 142.599 46.726C142.888 46.9407 143.289 47.048 143.803 47.048C144.307 47.048 144.745 46.936 145.119 46.712C145.501 46.488 145.777 46.1613 145.945 45.732L146.211 46.656C146.033 47.0947 145.721 47.4447 145.273 47.706C144.825 47.958 144.26 48.084 143.579 48.084ZM149.776 48V37.612H151.12V48H149.776ZM162.066 48.112C161.319 48.112 160.624 47.986 159.98 47.734C159.345 47.482 158.795 47.132 158.328 46.684C157.861 46.2267 157.497 45.6947 157.236 45.088C156.975 44.4813 156.844 43.8187 156.844 43.1C156.844 42.3813 156.975 41.7187 157.236 41.112C157.497 40.5053 157.861 39.978 158.328 39.53C158.795 39.0727 159.345 38.718 159.98 38.466C160.615 38.214 161.31 38.088 162.066 38.088C162.813 38.088 163.499 38.214 164.124 38.466C164.759 38.7087 165.309 39.0587 165.776 39.516C166.252 39.964 166.616 40.4913 166.868 41.098C167.129 41.7047 167.26 42.372 167.26 43.1C167.26 43.828 167.129 44.4953 166.868 45.102C166.616 45.7087 166.252 46.2407 165.776 46.698C165.309 47.146 164.759 47.496 164.124 47.748C163.499 47.9907 162.813 48.112 162.066 48.112ZM162.066 46.866C162.607 46.866 163.107 46.7727 163.564 46.586C164.031 46.3993 164.432 46.138 164.768 45.802C165.113 45.4567 165.379 45.0553 165.566 44.598C165.762 44.1407 165.86 43.6413 165.86 43.1C165.86 42.5587 165.762 42.0593 165.566 41.602C165.379 41.1447 165.113 40.748 164.768 40.412C164.432 40.0667 164.031 39.8007 163.564 39.614C163.107 39.4273 162.607 39.334 162.066 39.334C161.515 39.334 161.007 39.4273 160.54 39.614C160.083 39.8007 159.681 40.0667 159.336 40.412C158.991 40.748 158.72 41.1447 158.524 41.602C158.337 42.0593 158.244 42.5587 158.244 43.1C158.244 43.6413 158.337 44.1407 158.524 44.598C158.72 45.0553 158.991 45.4567 159.336 45.802C159.681 46.138 160.083 46.3993 160.54 46.586C161.007 46.7727 161.515 46.866 162.066 46.866ZM170.772 48L168.014 40.58H169.288L171.738 47.3H171.136L173.684 40.58H174.818L177.31 47.3H176.722L179.228 40.58H180.432L177.66 48H176.372L174.034 41.868H174.426L172.06 48H170.772ZM185.757 40.51C186.364 40.51 186.896 40.6267 187.353 40.86C187.82 41.0933 188.184 41.448 188.445 41.924C188.707 42.4 188.837 43.002 188.837 43.73V48H187.493V43.884C187.493 43.1653 187.316 42.624 186.961 42.26C186.616 41.896 186.126 41.714 185.491 41.714C185.015 41.714 184.6 41.8073 184.245 41.994C183.891 42.1807 183.615 42.456 183.419 42.82C183.233 43.184 183.139 43.6367 183.139 44.178V48H181.795V40.58H183.083V42.582L182.873 42.05C183.116 41.5647 183.489 41.1867 183.993 40.916C184.497 40.6453 185.085 40.51 185.757 40.51ZM194.629 48.084C193.835 48.084 193.135 47.9207 192.529 47.594C191.931 47.2673 191.465 46.8193 191.129 46.25C190.802 45.6807 190.639 45.0273 190.639 44.29C190.639 43.5527 190.797 42.8993 191.115 42.33C191.441 41.7607 191.885 41.3173 192.445 41C193.014 40.6733 193.653 40.51 194.363 40.51C195.081 40.51 195.716 40.6687 196.267 40.986C196.817 41.3033 197.247 41.7513 197.555 42.33C197.872 42.8993 198.031 43.5667 198.031 44.332C198.031 44.388 198.026 44.4533 198.017 44.528C198.017 44.6027 198.012 44.6727 198.003 44.738H191.689V43.772H197.303L196.757 44.108C196.766 43.632 196.668 43.2073 196.463 42.834C196.257 42.4607 195.973 42.1713 195.609 41.966C195.254 41.7513 194.839 41.644 194.363 41.644C193.896 41.644 193.481 41.7513 193.117 41.966C192.753 42.1713 192.468 42.4653 192.263 42.848C192.057 43.2213 191.955 43.6507 191.955 44.136V44.36C191.955 44.8547 192.067 45.298 192.291 45.69C192.524 46.0727 192.846 46.3713 193.257 46.586C193.667 46.8007 194.139 46.908 194.671 46.908C195.109 46.908 195.506 46.8333 195.861 46.684C196.225 46.5347 196.542 46.3107 196.813 46.012L197.555 46.88C197.219 47.272 196.799 47.5707 196.295 47.776C195.8 47.9813 195.245 48.084 194.629 48.084ZM199.897 48V40.58H201.185V42.596L201.059 42.092C201.264 41.5787 201.61 41.1867 202.095 40.916C202.58 40.6453 203.178 40.51 203.887 40.51V41.812C203.831 41.8027 203.775 41.798 203.719 41.798C203.672 41.798 203.626 41.798 203.579 41.798C202.86 41.798 202.291 42.0127 201.871 42.442C201.451 42.8713 201.241 43.492 201.241 44.304V48H199.897ZM207.754 48.084C207.138 48.084 206.55 48 205.99 47.832C205.439 47.664 205.005 47.4587 204.688 47.216L205.248 46.152C205.565 46.3667 205.957 46.5487 206.424 46.698C206.89 46.8473 207.366 46.922 207.852 46.922C208.477 46.922 208.925 46.8333 209.196 46.656C209.476 46.4787 209.616 46.2313 209.616 45.914C209.616 45.6807 209.532 45.4987 209.364 45.368C209.196 45.2373 208.972 45.1393 208.692 45.074C208.421 45.0087 208.118 44.9527 207.782 44.906C207.446 44.85 207.11 44.7847 206.774 44.71C206.438 44.626 206.13 44.514 205.85 44.374C205.57 44.2247 205.346 44.024 205.178 43.772C205.01 43.5107 204.926 43.1653 204.926 42.736C204.926 42.288 205.052 41.896 205.304 41.56C205.556 41.224 205.91 40.9673 206.368 40.79C206.834 40.6033 207.385 40.51 208.02 40.51C208.505 40.51 208.995 40.5707 209.49 40.692C209.994 40.804 210.404 40.9673 210.722 41.182L210.148 42.246C209.812 42.022 209.462 41.868 209.098 41.784C208.734 41.7 208.37 41.658 208.006 41.658C207.418 41.658 206.979 41.756 206.69 41.952C206.4 42.1387 206.256 42.3813 206.256 42.68C206.256 42.932 206.34 43.128 206.508 43.268C206.685 43.3987 206.909 43.5013 207.18 43.576C207.46 43.6507 207.768 43.716 208.104 43.772C208.44 43.8187 208.776 43.884 209.112 43.968C209.448 44.0427 209.751 44.15 210.022 44.29C210.302 44.43 210.526 44.626 210.694 44.878C210.871 45.13 210.96 45.466 210.96 45.886C210.96 46.334 210.829 46.7213 210.568 47.048C210.306 47.3747 209.938 47.6313 209.462 47.818C208.986 47.9953 208.416 48.084 207.754 48.084Z" fill="#0B3465"/>
<path d="M120.94 77V64.2L122.34 65.6H118.14V63H124.18V77H120.94ZM131.372 77.24C130.399 77.24 129.432 77.1133 128.472 76.86C127.525 76.5933 126.712 76.22 126.032 75.74L127.312 73.26C127.845 73.6467 128.459 73.9533 129.152 74.18C129.859 74.4067 130.572 74.52 131.292 74.52C132.105 74.52 132.745 74.36 133.212 74.04C133.679 73.72 133.912 73.2733 133.912 72.7C133.912 72.34 133.819 72.02 133.632 71.74C133.445 71.46 133.112 71.2467 132.632 71.1C132.165 70.9533 131.505 70.88 130.652 70.88H127.072L127.792 63H136.332V65.6H128.952L130.632 64.12L130.132 69.74L128.452 68.26H131.412C132.799 68.26 133.912 68.4533 134.752 68.84C135.605 69.2133 136.225 69.7267 136.612 70.38C136.999 71.0333 137.192 71.7733 137.192 72.6C137.192 73.4267 136.985 74.1933 136.572 74.9C136.159 75.5933 135.519 76.16 134.652 76.6C133.799 77.0267 132.705 77.24 131.372 77.24Z" fill="#0B3465"/>
<circle cx="72" cy="58" r="30" fill="url(#paint0_linear_373_13158)" fill-opacity="0.4"/>
<path d="M77.7483 52.6438C78.326 53.1956 77.5345 54.1171 76.9193 53.5653L72.8668 50.0033C72.6306 49.7859 72.3213 49.6652 72.0003 49.6652C71.6793 49.6652 71.37 49.7859 71.1338 50.0033L63.8116 56.4803C63.6572 56.6047 63.5349 56.7643 63.455 56.9458C63.3751 57.1273 63.3399 57.3253 63.3523 57.5232V68.3595C63.3473 68.5371 63.3776 68.714 63.4414 68.8798C63.5053 69.0456 63.6013 69.1972 63.7241 69.3256C63.8469 69.454 63.9939 69.5568 64.1567 69.628C64.3194 69.6992 64.4947 69.7374 64.6723 69.7404H81.8007C81.8401 69.7428 81.8795 69.7371 81.9166 69.7236C81.9537 69.7102 81.9876 69.6893 82.0163 69.6622C82.045 69.6351 82.0678 69.6025 82.0834 69.5662C82.099 69.53 82.107 69.491 82.1069 69.4515V64.4306C82.1069 64.0499 82.2339 63.6801 82.4677 63.3797C82.7016 63.0793 83.029 62.8656 83.398 62.7723C83.5511 62.7117 83.7966 62.5586 83.7649 62.3448L83.1872 56.1423C83.1583 55.8967 82.8204 55.7754 82.5748 55.7754H79.0394C78.8228 55.7754 78.4617 55.8967 78.4617 56.1423L77.8725 62.3332C77.8407 62.547 78.0573 62.7001 78.2393 62.7608C78.6083 62.854 78.9357 63.0678 79.1696 63.3681C79.4035 63.6685 79.5304 64.0383 79.5304 64.419V68.0851C79.5304 68.8824 78.3028 68.8824 78.3028 68.0851V64.4306C78.3031 64.3183 78.2625 64.2098 78.1886 64.1252C78.1148 64.0407 78.0126 63.986 77.9014 63.9712C77.1648 63.7546 76.5525 63.0497 76.6449 62.2379L77.2226 56.0354C77.2832 55.1138 78.1729 54.5014 79.0336 54.5014H82.5691C83.0145 54.4848 83.4502 54.6339 83.7922 54.9199C84.1341 55.2059 84.358 55.6084 84.4205 56.0498L84.9982 62.2523C85.0161 62.6455 84.8977 63.0328 84.663 63.3486C84.4282 63.6645 84.0916 63.8895 83.71 63.9857C83.6051 64.0078 83.5111 64.0657 83.4442 64.1495C83.3772 64.2333 83.3415 64.3378 83.3432 64.445V69.466C83.3416 69.8739 83.1784 70.2645 82.8892 70.5521C82.6 70.8397 82.2085 71.0008 81.8007 71H64.6723C64.3292 70.9974 63.99 70.9268 63.6743 70.7925C63.3586 70.6581 63.0726 70.4625 62.8328 70.2171C62.593 69.9716 62.4042 69.6811 62.2772 69.3623C62.1502 69.0435 62.0876 68.7027 62.093 68.3595V57.5232C62.087 57.1503 62.1637 56.7808 62.3175 56.4412C62.4714 56.1015 62.6985 55.8001 62.9826 55.5587L70.3192 49.0817C70.7803 48.6599 71.3826 48.4259 72.0075 48.4259C72.6324 48.4259 73.2347 48.6599 73.6958 49.0817L77.7483 52.6438ZM67.7716 57.8612H71.3648C71.7856 57.8693 72.1869 58.0404 72.4842 58.3383C72.7816 58.6362 72.9518 59.0379 72.9592 59.4587V62.5586C72.9518 62.9792 72.7815 63.3805 72.484 63.678C72.1866 63.9754 71.7854 64.1458 71.3648 64.1532H67.7716C67.3462 64.1519 66.9382 63.9844 66.6344 63.6865C66.3307 63.3886 66.1552 62.9839 66.1454 62.5586V59.4587C66.1473 59.2471 66.1909 59.0378 66.2736 58.8429C66.3564 58.6481 66.4767 58.4714 66.6277 58.3231C66.7787 58.1747 66.9575 58.0576 67.1537 57.9783C67.35 57.8991 67.56 57.8593 67.7716 57.8612ZM71.3648 59.089H67.7716C67.6743 59.0905 67.5814 59.13 67.5129 59.1991C67.4443 59.2682 67.4055 59.3614 67.4048 59.4587V62.5586C67.4055 62.6556 67.4444 62.7485 67.5131 62.8172C67.5817 62.8858 67.6746 62.9247 67.7716 62.9255H71.3648C71.4599 62.9187 71.5494 62.8779 71.6167 62.8105C71.6841 62.7431 71.7249 62.6536 71.7317 62.5586V59.4587C71.725 59.3634 71.6843 59.2735 71.617 59.2056C71.5496 59.1378 71.4602 59.0964 71.3648 59.089ZM80.8187 48.4375C81.1564 48.4261 81.493 48.4827 81.8084 48.6041C82.1238 48.7255 82.4116 48.9091 82.6545 49.144C82.8975 49.3789 83.0907 49.6603 83.2227 49.9715C83.3547 50.2827 83.4227 50.6172 83.4227 50.9552C83.4227 51.2932 83.3547 51.6277 83.2227 51.9389C83.0907 52.2501 82.8975 52.5315 82.6545 52.7664C82.4116 53.0013 82.1238 53.1849 81.8084 53.3063C81.493 53.4277 81.1564 53.4843 80.8187 53.4729C80.1658 53.4508 79.5471 53.1758 79.0931 52.7061C78.639 52.2363 78.3852 51.6085 78.3852 50.9552C78.3852 50.3019 78.639 49.6741 79.0931 49.2043C79.5471 48.7346 80.1658 48.4596 80.8187 48.4375ZM80.8187 49.6653C80.5632 49.6653 80.3134 49.7411 80.1011 49.8831C79.8887 50.0252 79.7232 50.227 79.6255 50.4631C79.5279 50.6993 79.5025 50.9591 79.5526 51.2096C79.6026 51.4602 79.7259 51.6903 79.9067 51.8708C80.0876 52.0513 80.3179 52.174 80.5686 52.2235C80.8192 52.273 81.0789 52.247 81.3148 52.1489C81.5506 52.0507 81.7521 51.8847 81.8936 51.672C82.0351 51.4592 82.1104 51.2093 82.1098 50.9538C82.1075 50.6127 81.9711 50.2863 81.73 50.0452C81.4889 49.804 81.1625 49.6676 80.8216 49.6653H80.8187ZM77.5345 48.9604C78.1469 49.4804 77.3179 50.4049 76.7055 49.8791L72.8986 46.5655C72.6491 46.3567 72.3342 46.2424 72.009 46.2424C71.6837 46.2424 71.3688 46.3567 71.1193 46.5655L66.8502 50.2806C66.7573 50.3583 66.644 50.4077 66.5239 50.4232C66.4038 50.4386 66.2818 50.4194 66.1722 50.3678C66.0626 50.3162 65.9701 50.2343 65.9055 50.1319C65.8409 50.0294 65.8069 49.9106 65.8075 49.7895V48.5617C65.8079 48.5294 65.8018 48.4973 65.7896 48.4673C65.7774 48.4373 65.7593 48.4101 65.7364 48.3872C65.7136 48.3643 65.6863 48.3463 65.6564 48.3341C65.6264 48.3219 65.5943 48.3158 65.562 48.3162H63.5978C63.5655 48.3158 63.5334 48.3219 63.5034 48.3341C63.4735 48.3463 63.4462 48.3643 63.4234 48.3872C63.4005 48.4101 63.3824 48.4373 63.3702 48.4673C63.358 48.4973 63.3519 48.5294 63.3523 48.5617V53.0424C63.334 53.2309 63.2465 53.4059 63.1068 53.5336L60.0364 56.174C59.9755 56.2316 59.9034 56.276 59.8246 56.3043C59.7457 56.3326 59.6619 56.3443 59.5783 56.3386C59.4947 56.3329 59.4132 56.3099 59.339 56.2712C59.2647 56.2324 59.1992 56.1787 59.1468 56.1134C59.0423 55.9894 58.9902 55.8295 59.0015 55.6677C59.0128 55.506 59.0867 55.355 59.2074 55.2467L62.0005 52.8229C62.0296 52.8017 62.0531 52.7738 62.0692 52.7417C62.0853 52.7095 62.0934 52.674 62.093 52.638V48.1919C62.0975 47.9002 62.2155 47.6216 62.4221 47.4156C62.6287 47.2095 62.9075 47.0921 63.1992 47.0884H65.9346C66.1941 47.0817 66.4476 47.1676 66.6497 47.3306C66.8518 47.4935 66.9894 47.7231 67.038 47.9782C67.0391 48.0214 67.0548 48.0629 67.0827 48.096C67.1105 48.129 67.1487 48.1517 67.191 48.1602C67.2305 48.1791 67.2745 48.1864 67.318 48.1813C67.3615 48.1762 67.4026 48.1589 67.4366 48.1313L70.2932 45.6439C70.7634 45.229 71.3689 45 71.996 45C72.623 45 73.2285 45.229 73.6987 45.6439L77.5345 48.9604Z" fill="#00A4C8"/>
<defs>
<filter id="filter0_d_373_13158" x="0.264316" y="0.0214976" width="345.471" height="137.471" filterUnits="userSpaceOnUse" color-interpolation-filters="sRGB">
<feFlood flood-opacity="0" result="BackgroundImageFix"/>
<feColorMatrix in="SourceAlpha" type="matrix" values="0 0 0 0 0 0 0 0 0 0 0 0 0 0 0 0 0 0 127 0" result="hardAlpha"/>
<feMorphology radius="1.57269" operator="dilate" in="SourceAlpha" result="effect1_dropShadow_373_13158"/>
<feOffset dy="10.7572"/>
<feGaussianBlur stdDeviation="12.5815"/>
<feComposite in2="hardAlpha" operator="out"/>
<feColorMatrix type="matrix" values="0 0 0 0 0 0 0 0 0 0 0 0 0 0 0 0 0 0 0.12 0"/>
<feBlend mode="normal" in2="BackgroundImageFix" result="effect1_dropShadow_373_13158"/>
<feBlend mode="normal" in="SourceGraphic" in2="effect1_dropShadow_373_13158" result="shape"/>
</filter>
<linearGradient id="paint0_linear_373_13158" x1="72" y1="28" x2="72" y2="88" gradientUnits="userSpaceOnUse">
<stop stop-color="#65D0FE"/>
<stop offset="1" stop-color="#65D0FE" stop-opacity="0"/>
</linearGradient>
</defs>
</svg>
