<svg width="346" height="138" viewBox="0 0 346 138" fill="none" xmlns="http://www.w3.org/2000/svg">
<g filter="url(#filter0_d_373_13161)">
<rect x="27" y="16" width="292" height="84" rx="12" fill="white"/>
</g>
<path d="M121.416 48V39.418H118.056V38.2H126.162V39.418H122.802V48H121.416ZM129.903 48.084C129.157 48.084 128.494 47.9207 127.915 47.594C127.337 47.2673 126.879 46.8193 126.543 46.25C126.207 45.6713 126.039 45.018 126.039 44.29C126.039 43.5527 126.207 42.8993 126.543 42.33C126.879 41.7607 127.337 41.3173 127.915 41C128.494 40.6733 129.157 40.51 129.903 40.51C130.641 40.51 131.299 40.6733 131.877 41C132.465 41.3173 132.923 41.7607 133.249 42.33C133.585 42.89 133.753 43.5433 133.753 44.29C133.753 45.0273 133.585 45.6807 133.249 46.25C132.923 46.8193 132.465 47.2673 131.877 47.594C131.299 47.9207 130.641 48.084 129.903 48.084ZM129.903 46.908C130.379 46.908 130.804 46.8007 131.177 46.586C131.56 46.3713 131.859 46.068 132.073 45.676C132.288 45.2747 132.395 44.8127 132.395 44.29C132.395 43.758 132.288 43.3007 132.073 42.918C131.859 42.526 131.56 42.2227 131.177 42.008C130.804 41.7933 130.379 41.686 129.903 41.686C129.427 41.686 129.003 41.7933 128.629 42.008C128.256 42.2227 127.957 42.526 127.733 42.918C127.509 43.3007 127.397 43.758 127.397 44.29C127.397 44.8127 127.509 45.2747 127.733 45.676C127.957 46.068 128.256 46.3713 128.629 46.586C129.003 46.8007 129.427 46.908 129.903 46.908ZM138.16 48.084C137.413 48.084 136.835 47.8833 136.424 47.482C136.013 47.0807 135.808 46.5067 135.808 45.76V38.956H137.152V45.704C137.152 46.1053 137.25 46.4133 137.446 46.628C137.651 46.8427 137.941 46.95 138.314 46.95C138.734 46.95 139.084 46.8333 139.364 46.6L139.784 47.566C139.579 47.7433 139.331 47.874 139.042 47.958C138.762 48.042 138.468 48.084 138.16 48.084ZM134.548 41.686V40.58H139.28V41.686H134.548ZM146.015 48V46.432L145.945 46.138V43.464C145.945 42.8947 145.777 42.456 145.441 42.148C145.114 41.8307 144.619 41.672 143.957 41.672C143.518 41.672 143.089 41.7467 142.669 41.896C142.249 42.036 141.894 42.2273 141.605 42.47L141.045 41.462C141.427 41.154 141.885 40.9207 142.417 40.762C142.958 40.594 143.523 40.51 144.111 40.51C145.128 40.51 145.912 40.7573 146.463 41.252C147.013 41.7467 147.289 42.5027 147.289 43.52V48H146.015ZM143.579 48.084C143.028 48.084 142.543 47.9907 142.123 47.804C141.712 47.6173 141.395 47.3607 141.171 47.034C140.947 46.698 140.835 46.32 140.835 45.9C140.835 45.4987 140.928 45.1347 141.115 44.808C141.311 44.4813 141.623 44.22 142.053 44.024C142.491 43.828 143.079 43.73 143.817 43.73H146.169V44.696H143.873C143.201 44.696 142.748 44.808 142.515 45.032C142.281 45.256 142.165 45.5267 142.165 45.844C142.165 46.208 142.309 46.502 142.599 46.726C142.888 46.9407 143.289 47.048 143.803 47.048C144.307 47.048 144.745 46.936 145.119 46.712C145.501 46.488 145.777 46.1613 145.945 45.732L146.211 46.656C146.033 47.0947 145.721 47.4447 145.273 47.706C144.825 47.958 144.26 48.084 143.579 48.084ZM149.776 48V37.612H151.12V48H149.776ZM157.642 48V38.2H159.042V48H157.642ZM165.742 40.51C166.349 40.51 166.881 40.6267 167.338 40.86C167.805 41.0933 168.169 41.448 168.43 41.924C168.691 42.4 168.822 43.002 168.822 43.73V48H167.478V43.884C167.478 43.1653 167.301 42.624 166.946 42.26C166.601 41.896 166.111 41.714 165.476 41.714C165 41.714 164.585 41.8073 164.23 41.994C163.875 42.1807 163.6 42.456 163.404 42.82C163.217 43.184 163.124 43.6367 163.124 44.178V48H161.78V40.58H163.068V42.582L162.858 42.05C163.101 41.5647 163.474 41.1867 163.978 40.916C164.482 40.6453 165.07 40.51 165.742 40.51ZM174.543 48.084C173.787 48.084 173.11 47.9207 172.513 47.594C171.925 47.2673 171.463 46.8193 171.127 46.25C170.791 45.6807 170.623 45.0273 170.623 44.29C170.623 43.5527 170.791 42.8993 171.127 42.33C171.463 41.7607 171.925 41.3173 172.513 41C173.11 40.6733 173.787 40.51 174.543 40.51C175.215 40.51 175.812 40.6453 176.335 40.916C176.867 41.1773 177.278 41.5693 177.567 42.092L176.545 42.75C176.302 42.386 176.004 42.12 175.649 41.952C175.304 41.7747 174.93 41.686 174.529 41.686C174.044 41.686 173.61 41.7933 173.227 42.008C172.844 42.2227 172.541 42.526 172.317 42.918C172.093 43.3007 171.981 43.758 171.981 44.29C171.981 44.822 172.093 45.284 172.317 45.676C172.541 46.068 172.844 46.3713 173.227 46.586C173.61 46.8007 174.044 46.908 174.529 46.908C174.93 46.908 175.304 46.824 175.649 46.656C176.004 46.4787 176.302 46.208 176.545 45.844L177.567 46.488C177.278 47.0013 176.867 47.398 176.335 47.678C175.812 47.9487 175.215 48.084 174.543 48.084ZM179.212 48V40.58H180.556V48H179.212ZM179.884 39.152C179.622 39.152 179.403 39.068 179.226 38.9C179.058 38.732 178.974 38.5267 178.974 38.284C178.974 38.032 179.058 37.822 179.226 37.654C179.403 37.486 179.622 37.402 179.884 37.402C180.145 37.402 180.36 37.486 180.528 37.654C180.705 37.8127 180.794 38.0133 180.794 38.256C180.794 38.508 180.71 38.7227 180.542 38.9C180.374 39.068 180.154 39.152 179.884 39.152ZM186.188 48.084C185.469 48.084 184.825 47.9253 184.256 47.608C183.696 47.2907 183.252 46.8473 182.926 46.278C182.599 45.7087 182.436 45.046 182.436 44.29C182.436 43.534 182.599 42.876 182.926 42.316C183.252 41.7467 183.696 41.3033 184.256 40.986C184.825 40.6687 185.469 40.51 186.188 40.51C186.813 40.51 187.378 40.65 187.882 40.93C188.386 41.21 188.787 41.63 189.086 42.19C189.394 42.75 189.548 43.45 189.548 44.29C189.548 45.13 189.398 45.83 189.1 46.39C188.81 46.95 188.414 47.3747 187.91 47.664C187.406 47.944 186.832 48.084 186.188 48.084ZM186.3 46.908C186.766 46.908 187.186 46.8007 187.56 46.586C187.942 46.3713 188.241 46.068 188.456 45.676C188.68 45.2747 188.792 44.8127 188.792 44.29C188.792 43.758 188.68 43.3007 188.456 42.918C188.241 42.526 187.942 42.2227 187.56 42.008C187.186 41.7933 186.766 41.686 186.3 41.686C185.824 41.686 185.399 41.7933 185.026 42.008C184.652 42.2227 184.354 42.526 184.13 42.918C183.906 43.3007 183.794 43.758 183.794 44.29C183.794 44.8127 183.906 45.2747 184.13 45.676C184.354 46.068 184.652 46.3713 185.026 46.586C185.399 46.8007 185.824 46.908 186.3 46.908ZM188.834 48V45.998L188.918 44.276L188.778 42.554V37.612H190.122V48H188.834ZM195.969 48.084C195.175 48.084 194.475 47.9207 193.869 47.594C193.271 47.2673 192.805 46.8193 192.469 46.25C192.142 45.6807 191.979 45.0273 191.979 44.29C191.979 43.5527 192.137 42.8993 192.455 42.33C192.781 41.7607 193.225 41.3173 193.785 41C194.354 40.6733 194.993 40.51 195.703 40.51C196.421 40.51 197.056 40.6687 197.607 40.986C198.157 41.3033 198.587 41.7513 198.895 42.33C199.212 42.8993 199.371 43.5667 199.371 44.332C199.371 44.388 199.366 44.4533 199.357 44.528C199.357 44.6027 199.352 44.6727 199.343 44.738H193.029V43.772H198.643L198.097 44.108C198.106 43.632 198.008 43.2073 197.803 42.834C197.597 42.4607 197.313 42.1713 196.949 41.966C196.594 41.7513 196.179 41.644 195.703 41.644C195.236 41.644 194.821 41.7513 194.457 41.966C194.093 42.1713 193.808 42.4653 193.603 42.848C193.397 43.2213 193.295 43.6507 193.295 44.136V44.36C193.295 44.8547 193.407 45.298 193.631 45.69C193.864 46.0727 194.186 46.3713 194.597 46.586C195.007 46.8007 195.479 46.908 196.011 46.908C196.449 46.908 196.846 46.8333 197.201 46.684C197.565 46.5347 197.882 46.3107 198.153 46.012L198.895 46.88C198.559 47.272 198.139 47.5707 197.635 47.776C197.14 47.9813 196.585 48.084 195.969 48.084ZM205.199 40.51C205.806 40.51 206.338 40.6267 206.795 40.86C207.262 41.0933 207.626 41.448 207.887 41.924C208.148 42.4 208.279 43.002 208.279 43.73V48H206.935V43.884C206.935 43.1653 206.758 42.624 206.403 42.26C206.058 41.896 205.568 41.714 204.933 41.714C204.457 41.714 204.042 41.8073 203.687 41.994C203.332 42.1807 203.057 42.456 202.861 42.82C202.674 43.184 202.581 43.6367 202.581 44.178V48H201.237V40.58H202.525V42.582L202.315 42.05C202.558 41.5647 202.931 41.1867 203.435 40.916C203.939 40.6453 204.527 40.51 205.199 40.51ZM213.314 48.084C212.568 48.084 211.989 47.8833 211.578 47.482C211.168 47.0807 210.962 46.5067 210.962 45.76V38.956H212.306V45.704C212.306 46.1053 212.404 46.4133 212.6 46.628C212.806 46.8427 213.095 46.95 213.468 46.95C213.888 46.95 214.238 46.8333 214.518 46.6L214.938 47.566C214.733 47.7433 214.486 47.874 214.196 47.958C213.916 48.042 213.622 48.084 213.314 48.084ZM209.702 41.686V40.58H214.434V41.686H209.702ZM218.691 48.084C218.075 48.084 217.487 48 216.927 47.832C216.376 47.664 215.942 47.4587 215.625 47.216L216.185 46.152C216.502 46.3667 216.894 46.5487 217.361 46.698C217.828 46.8473 218.304 46.922 218.789 46.922C219.414 46.922 219.862 46.8333 220.133 46.656C220.413 46.4787 220.553 46.2313 220.553 45.914C220.553 45.6807 220.469 45.4987 220.301 45.368C220.133 45.2373 219.909 45.1393 219.629 45.074C219.358 45.0087 219.055 44.9527 218.719 44.906C218.383 44.85 218.047 44.7847 217.711 44.71C217.375 44.626 217.067 44.514 216.787 44.374C216.507 44.2247 216.283 44.024 216.115 43.772C215.947 43.5107 215.863 43.1653 215.863 42.736C215.863 42.288 215.989 41.896 216.241 41.56C216.493 41.224 216.848 40.9673 217.305 40.79C217.772 40.6033 218.322 40.51 218.957 40.51C219.442 40.51 219.932 40.5707 220.427 40.692C220.931 40.804 221.342 40.9673 221.659 41.182L221.085 42.246C220.749 42.022 220.399 41.868 220.035 41.784C219.671 41.7 219.307 41.658 218.943 41.658C218.355 41.658 217.916 41.756 217.627 41.952C217.338 42.1387 217.193 42.3813 217.193 42.68C217.193 42.932 217.277 43.128 217.445 43.268C217.622 43.3987 217.846 43.5013 218.117 43.576C218.397 43.6507 218.705 43.716 219.041 43.772C219.377 43.8187 219.713 43.884 220.049 43.968C220.385 44.0427 220.688 44.15 220.959 44.29C221.239 44.43 221.463 44.626 221.631 44.878C221.808 45.13 221.897 45.466 221.897 45.886C221.897 46.334 221.766 46.7213 221.505 47.048C221.244 47.3747 220.875 47.6313 220.399 47.818C219.923 47.9953 219.354 48.084 218.691 48.084Z" fill="#0B3465"/>
<path d="M120.94 77V64.2L122.34 65.6H118.14V63H124.18V77H120.94ZM131.372 77.24C130.399 77.24 129.432 77.1133 128.472 76.86C127.525 76.5933 126.712 76.22 126.032 75.74L127.312 73.26C127.845 73.6467 128.459 73.9533 129.152 74.18C129.859 74.4067 130.572 74.52 131.292 74.52C132.105 74.52 132.745 74.36 133.212 74.04C133.679 73.72 133.912 73.2733 133.912 72.7C133.912 72.34 133.819 72.02 133.632 71.74C133.445 71.46 133.112 71.2467 132.632 71.1C132.165 70.9533 131.505 70.88 130.652 70.88H127.072L127.792 63H136.332V65.6H128.952L130.632 64.12L130.132 69.74L128.452 68.26H131.412C132.799 68.26 133.912 68.4533 134.752 68.84C135.605 69.2133 136.225 69.7267 136.612 70.38C136.999 71.0333 137.192 71.7733 137.192 72.6C137.192 73.4267 136.985 74.1933 136.572 74.9C136.159 75.5933 135.519 76.16 134.652 76.6C133.799 77.0267 132.705 77.24 131.372 77.24Z" fill="#0B3465"/>
<circle cx="72" cy="58" r="30" fill="url(#paint0_linear_373_13161)" fill-opacity="0.4"/>
<g clip-path="url(#clip0_373_13161)">
<path d="M83.1788 44H60.8212C60.3684 44 60 44.3497 60 44.7796V72.2204C60 72.6504 60.3684 73 60.8212 73H83.1788C83.6318 73 84 72.6504 84 72.2204V44.7796C84 44.3497 83.6318 44 83.1788 44ZM83.0146 72.0645H60.9854V44.9355H83.0146V72.0645ZM69.7729 52.5849V53.732C69.7729 54.0759 70.0675 54.3556 70.4299 54.3556H73.5703C73.9325 54.3556 74.2272 54.0759 74.2272 53.732V52.5849C74.2272 52.2409 73.9325 51.9612 73.5703 51.9612H70.4299C70.0675 51.9612 69.7729 52.2409 69.7729 52.5849ZM72.4929 52.8967H73.2418V53.4202H72.4929V52.8967ZM70.7583 52.8967H71.5075V53.4202H70.7583V52.8967ZM71.405 54.9971H68.3292C67.9669 54.9971 67.6722 55.2768 67.6722 55.6208V58.0237C67.6722 58.3677 67.9669 58.6474 68.3292 58.6474H71.405C71.7673 58.6474 72.0621 58.3677 72.0621 58.0237V55.6208C72.0621 55.2768 71.7673 54.9971 71.405 54.9971ZM69.3744 57.7119H68.6576V55.9326H69.3744V57.7119ZM71.0765 57.7119H70.3598V55.9326H71.0765V57.7119ZM65.6947 53.9308C65.7913 53.9791 65.8963 54.0029 66.001 54.0029C66.0492 54.0029 66.0965 53.9926 66.1436 53.9825V60.1063C66.1436 60.4501 66.4382 60.73 66.8006 60.73H77.1994C77.5616 60.73 77.8564 60.4501 77.8564 60.1063V53.9824C78.0062 54.0145 78.1647 54.0013 78.3058 53.9307C78.522 53.8226 78.6564 53.6111 78.6564 53.3789V51.7634C78.6564 51.5571 78.5492 51.3645 78.3706 51.2488L77.6187 50.7603V48.4537C77.6187 48.1098 77.3239 47.8301 76.9618 47.8301H75.3987C75.0365 47.8301 74.7417 48.1098 74.7417 48.4537V48.891L72.3719 47.3512C72.1496 47.2063 71.8516 47.2064 71.6294 47.3505C71.6292 47.3506 71.629 47.3506 71.6289 47.3508L65.6298 51.2488C65.4506 51.3651 65.3438 51.5576 65.3438 51.7634V53.3789C65.3438 53.6111 65.4782 53.8226 65.6947 53.9308ZM75.281 59.7945H73.5174V55.9326H75.281V59.7945ZM76.871 59.7945H76.2663V55.6208C76.2663 55.2768 75.9716 54.9971 75.6094 54.9971H73.1889C72.8268 54.9971 72.532 55.2768 72.532 55.6208V59.7945H67.129V53.4015L72.0002 50.2366L76.871 53.4013V59.7945ZM75.7271 48.7656H76.6333V50.12L75.7271 49.5313V48.7656ZM66.3292 51.9279L72.0002 48.2432L77.671 51.9279V52.7875L72.3719 49.3446C72.2606 49.2721 72.1307 49.2359 72.0002 49.2359C71.8703 49.2359 71.7402 49.272 71.6289 49.3442L66.3292 52.7875V51.9279ZM67.4915 63.5154C67.2193 63.5154 66.9988 63.3059 66.9988 63.0477C66.9988 62.7895 67.2193 62.58 67.4915 62.58H76.5085C76.7805 62.58 77.0012 62.7895 77.0012 63.0477C77.0012 63.3059 76.7805 63.5154 76.5085 63.5154H67.4915ZM69.6297 65.2445C69.6297 65.5027 69.4092 65.7122 69.137 65.7122H66.7115C66.4394 65.7122 66.2188 65.5027 66.2188 65.2445C66.2188 64.9863 66.4394 64.7768 66.7115 64.7768H69.137C69.4092 64.7768 69.6297 64.9863 69.6297 65.2445ZM72.0621 65.2445C72.0621 65.5027 71.8414 65.7122 71.5692 65.7122H70.7497C70.4775 65.7122 70.257 65.5027 70.257 65.2445C70.257 64.9863 70.4775 64.7768 70.7497 64.7768H71.5692C71.8414 64.7768 72.0621 64.9863 72.0621 65.2445ZM77.2886 65.7122H73.0247C72.7527 65.7122 72.532 65.5027 72.532 65.2445C72.532 64.9863 72.7527 64.7768 73.0247 64.7768H77.2886C77.5606 64.7768 77.7813 64.9863 77.7813 65.2445C77.7813 65.5027 77.5606 65.7122 77.2886 65.7122ZM75.5921 68.7998H80.6884C80.9604 68.7998 81.1811 69.0093 81.1811 69.2675C81.1811 69.5257 80.9604 69.7352 80.6884 69.7352H75.5921C75.3201 69.7352 75.0994 69.5257 75.0994 69.2675C75.0994 69.0093 75.3201 68.7998 75.5921 68.7998ZM78.7593 66.8243C78.8992 66.8487 79.0214 66.9291 79.0942 67.0451L79.2395 67.2766L79.4849 67.0914C79.6973 66.9306 80.0081 66.9644 80.1771 67.1663C80.3465 67.3685 80.3112 67.6627 80.0982 67.8235L79.4114 68.3421C79.3001 68.4261 79.1561 68.4608 79.0163 68.4362C78.8764 68.4118 78.7542 68.3314 78.6814 68.2154L78.5361 67.984L78.062 68.3421C77.8551 68.498 77.5561 68.4718 77.3832 68.2827L77.1751 68.0552L76.7959 68.3421C76.7052 68.4106 76.5967 68.4438 76.4893 68.4438C76.3443 68.4438 76.2009 68.3835 76.1034 68.2675C75.934 68.0653 75.9693 67.7711 76.182 67.61L76.9306 67.0442C77.1382 66.8886 77.4368 66.9142 77.6097 67.1036L77.8179 67.3311L78.3641 66.9184C78.4755 66.8344 78.6188 66.7997 78.7593 66.8243Z" fill="#ECC600" stroke="#ECC600" stroke-width="0.3"/>
</g>
<defs>
<filter id="filter0_d_373_13161" x="0.264316" y="0.0214976" width="345.471" height="137.471" filterUnits="userSpaceOnUse" color-interpolation-filters="sRGB">
<feFlood flood-opacity="0" result="BackgroundImageFix"/>
<feColorMatrix in="SourceAlpha" type="matrix" values="0 0 0 0 0 0 0 0 0 0 0 0 0 0 0 0 0 0 127 0" result="hardAlpha"/>
<feMorphology radius="1.57269" operator="dilate" in="SourceAlpha" result="effect1_dropShadow_373_13161"/>
<feOffset dy="10.7572"/>
<feGaussianBlur stdDeviation="12.5815"/>
<feComposite in2="hardAlpha" operator="out"/>
<feColorMatrix type="matrix" values="0 0 0 0 0 0 0 0 0 0 0 0 0 0 0 0 0 0 0.12 0"/>
<feBlend mode="normal" in2="BackgroundImageFix" result="effect1_dropShadow_373_13161"/>
<feBlend mode="normal" in="SourceGraphic" in2="effect1_dropShadow_373_13161" result="shape"/>
</filter>
<linearGradient id="paint0_linear_373_13161" x1="72" y1="28" x2="72" y2="88" gradientUnits="userSpaceOnUse">
<stop stop-color="#FFCA0F"/>
<stop offset="1" stop-color="#FFCA0F" stop-opacity="0"/>
</linearGradient>
<clipPath id="clip0_373_13161">
<rect width="30" height="30" fill="white" transform="translate(57 43)"/>
</clipPath>
</defs>
</svg>
