<svg width="60" height="60" viewBox="0 0 60 60" fill="none" xmlns="http://www.w3.org/2000/svg">
<circle cx="30" cy="30" r="30" fill="url(#paint0_linear_373_13234)" fill-opacity="0.4"/>
<g clip-path="url(#clip0_373_13234)">
<path d="M41.1788 16H18.8212C18.3684 16 18 16.3497 18 16.7796V44.2204C18 44.6504 18.3684 45 18.8212 45H41.1788C41.6318 45 42 44.6504 42 44.2204V16.7796C42 16.3497 41.6318 16 41.1788 16ZM41.0146 44.0645H18.9854V16.9355H41.0146V44.0645ZM27.7729 24.5849V25.732C27.7729 26.0759 28.0675 26.3556 28.4299 26.3556H31.5703C31.9325 26.3556 32.2272 26.0759 32.2272 25.732V24.5849C32.2272 24.2409 31.9325 23.9612 31.5703 23.9612H28.4299C28.0675 23.9612 27.7729 24.2409 27.7729 24.5849ZM30.4929 24.8967H31.2418V25.4202H30.4929V24.8967ZM28.7583 24.8967H29.5075V25.4202H28.7583V24.8967ZM29.405 26.9971H26.3292C25.9669 26.9971 25.6722 27.2768 25.6722 27.6208V30.0237C25.6722 30.3677 25.9669 30.6474 26.3292 30.6474H29.405C29.7673 30.6474 30.0621 30.3677 30.0621 30.0237V27.6208C30.0621 27.2768 29.7673 26.9971 29.405 26.9971ZM27.3744 29.7119H26.6576V27.9326H27.3744V29.7119ZM29.0765 29.7119H28.3598V27.9326H29.0765V29.7119ZM23.6947 25.9308C23.7913 25.9791 23.8963 26.0029 24.001 26.0029C24.0492 26.0029 24.0965 25.9926 24.1436 25.9825V32.1063C24.1436 32.4501 24.4382 32.73 24.8006 32.73H35.1994C35.5616 32.73 35.8564 32.4501 35.8564 32.1063V25.9824C36.0062 26.0145 36.1647 26.0013 36.3058 25.9307C36.522 25.8226 36.6564 25.6111 36.6564 25.3789V23.7634C36.6564 23.5571 36.5492 23.3645 36.3706 23.2488L35.6187 22.7603V20.4537C35.6187 20.1098 35.3239 19.8301 34.9618 19.8301H33.3987C33.0365 19.8301 32.7417 20.1098 32.7417 20.4537V20.891L30.3719 19.3512C30.1496 19.2063 29.8516 19.2064 29.6294 19.3505C29.6292 19.3506 29.629 19.3506 29.6289 19.3508L23.6298 23.2488C23.4506 23.3651 23.3438 23.5576 23.3438 23.7634V25.3789C23.3438 25.6111 23.4782 25.8226 23.6947 25.9308ZM33.281 31.7945H31.5174V27.9326H33.281V31.7945ZM34.871 31.7945H34.2663V27.6208C34.2663 27.2768 33.9716 26.9971 33.6094 26.9971H31.1889C30.8268 26.9971 30.532 27.2768 30.532 27.6208V31.7945H25.129V25.4015L30.0002 22.2366L34.871 25.4013V31.7945ZM33.7271 20.7656H34.6333V22.12L33.7271 21.5313V20.7656ZM24.3292 23.9279L30.0002 20.2432L35.671 23.9279V24.7875L30.3719 21.3446C30.2606 21.2721 30.1307 21.2359 30.0002 21.2359C29.8703 21.2359 29.7402 21.272 29.6289 21.3442L24.3292 24.7875V23.9279ZM25.4915 35.5154C25.2193 35.5154 24.9988 35.3059 24.9988 35.0477C24.9988 34.7895 25.2193 34.58 25.4915 34.58H34.5085C34.7805 34.58 35.0012 34.7895 35.0012 35.0477C35.0012 35.3059 34.7805 35.5154 34.5085 35.5154H25.4915ZM27.6297 37.2445C27.6297 37.5027 27.4092 37.7122 27.137 37.7122H24.7115C24.4394 37.7122 24.2188 37.5027 24.2188 37.2445C24.2188 36.9863 24.4394 36.7768 24.7115 36.7768H27.137C27.4092 36.7768 27.6297 36.9863 27.6297 37.2445ZM30.0621 37.2445C30.0621 37.5027 29.8414 37.7122 29.5692 37.7122H28.7497C28.4775 37.7122 28.257 37.5027 28.257 37.2445C28.257 36.9863 28.4775 36.7768 28.7497 36.7768H29.5692C29.8414 36.7768 30.0621 36.9863 30.0621 37.2445ZM35.2886 37.7122H31.0247C30.7527 37.7122 30.532 37.5027 30.532 37.2445C30.532 36.9863 30.7527 36.7768 31.0247 36.7768H35.2886C35.5606 36.7768 35.7813 36.9863 35.7813 37.2445C35.7813 37.5027 35.5606 37.7122 35.2886 37.7122ZM33.5921 40.7998H38.6884C38.9604 40.7998 39.1811 41.0093 39.1811 41.2675C39.1811 41.5257 38.9604 41.7352 38.6884 41.7352H33.5921C33.3201 41.7352 33.0994 41.5257 33.0994 41.2675C33.0994 41.0093 33.3201 40.7998 33.5921 40.7998ZM36.7593 38.8243C36.8992 38.8487 37.0214 38.9291 37.0942 39.0451L37.2395 39.2766L37.4849 39.0914C37.6973 38.9306 38.0081 38.9644 38.1771 39.1663C38.3465 39.3685 38.3112 39.6627 38.0982 39.8235L37.4114 40.3421C37.3001 40.4261 37.1561 40.4608 37.0163 40.4362C36.8764 40.4118 36.7542 40.3314 36.6814 40.2154L36.5361 39.984L36.062 40.3421C35.8551 40.498 35.5561 40.4718 35.3832 40.2827L35.1751 40.0552L34.7959 40.3421C34.7052 40.4106 34.5967 40.4438 34.4893 40.4438C34.3443 40.4438 34.2009 40.3835 34.1034 40.2675C33.934 40.0653 33.9693 39.7711 34.182 39.61L34.9306 39.0442C35.1382 38.8886 35.4368 38.9142 35.6097 39.1036L35.8179 39.3311L36.3641 38.9184C36.4755 38.8344 36.6188 38.7997 36.7593 38.8243Z" fill="#ECC600" stroke="#ECC600" stroke-width="0.3"/>
</g>
<defs>
<linearGradient id="paint0_linear_373_13234" x1="30" y1="0" x2="30" y2="60" gradientUnits="userSpaceOnUse">
<stop stop-color="#FFCA0F"/>
<stop offset="1" stop-color="#FFCA0F" stop-opacity="0"/>
</linearGradient>
<clipPath id="clip0_373_13234">
<rect width="30" height="30" fill="white" transform="translate(15 15)"/>
</clipPath>
</defs>
</svg>
