<svg width="60" height="60" viewBox="0 0 60 60" fill="none" xmlns="http://www.w3.org/2000/svg">
<circle cx="30" cy="30" r="30" fill="url(#paint0_linear_373_13219)" fill-opacity="0.4"/>
<path d="M35.7483 24.6438C36.326 25.1956 35.5345 26.1171 34.9193 25.5653L30.8668 22.0033C30.6306 21.7859 30.3213 21.6652 30.0003 21.6652C29.6793 21.6652 29.37 21.7859 29.1338 22.0033L21.8116 28.4803C21.6572 28.6047 21.5349 28.7643 21.455 28.9458C21.3751 29.1273 21.3399 29.3253 21.3523 29.5232V40.3595C21.3473 40.5371 21.3776 40.714 21.4414 40.8798C21.5053 41.0456 21.6013 41.1972 21.7241 41.3256C21.8469 41.454 21.9939 41.5568 22.1567 41.628C22.3194 41.6992 22.4947 41.7374 22.6723 41.7404H39.8007C39.8401 41.7428 39.8795 41.7371 39.9166 41.7236C39.9537 41.7102 39.9876 41.6893 40.0163 41.6622C40.045 41.6351 40.0678 41.6025 40.0834 41.5662C40.099 41.53 40.107 41.491 40.1069 41.4515V36.4306C40.1069 36.0499 40.2339 35.6801 40.4677 35.3797C40.7016 35.0793 41.029 34.8656 41.398 34.7723C41.5511 34.7117 41.7966 34.5586 41.7649 34.3448L41.1872 28.1423C41.1583 27.8967 40.8204 27.7754 40.5748 27.7754H37.0394C36.8228 27.7754 36.4617 27.8967 36.4617 28.1423L35.8725 34.3332C35.8407 34.547 36.0573 34.7001 36.2393 34.7608C36.6083 34.854 36.9357 35.0678 37.1696 35.3681C37.4035 35.6685 37.5304 36.0383 37.5304 36.419V40.0851C37.5304 40.8824 36.3028 40.8824 36.3028 40.0851V36.4306C36.3031 36.3183 36.2625 36.2098 36.1886 36.1252C36.1148 36.0407 36.0126 35.986 35.9014 35.9712C35.1648 35.7546 34.5525 35.0497 34.6449 34.2379L35.2226 28.0354C35.2832 27.1138 36.1729 26.5014 37.0336 26.5014H40.5691C41.0145 26.4848 41.4502 26.6339 41.7922 26.9199C42.1341 27.2059 42.358 27.6084 42.4205 28.0498L42.9982 34.2523C43.0161 34.6455 42.8977 35.0328 42.663 35.3486C42.4282 35.6645 42.0916 35.8895 41.71 35.9857C41.6051 36.0078 41.5111 36.0657 41.4442 36.1495C41.3772 36.2333 41.3415 36.3378 41.3432 36.445V41.466C41.3416 41.8739 41.1784 42.2645 40.8892 42.5521C40.6 42.8397 40.2085 43.0008 39.8007 43H22.6723C22.3292 42.9974 21.99 42.9268 21.6743 42.7925C21.3586 42.6581 21.0726 42.4625 20.8328 42.2171C20.593 41.9716 20.4042 41.6811 20.2772 41.3623C20.1502 41.0435 20.0876 40.7027 20.093 40.3595V29.5232C20.087 29.1503 20.1637 28.7808 20.3175 28.4412C20.4714 28.1015 20.6985 27.8001 20.9826 27.5587L28.3192 21.0817C28.7803 20.6599 29.3826 20.4259 30.0075 20.4259C30.6324 20.4259 31.2347 20.6599 31.6958 21.0817L35.7483 24.6438ZM25.7716 29.8612H29.3648C29.7856 29.8693 30.1869 30.0404 30.4842 30.3383C30.7816 30.6362 30.9518 31.0379 30.9592 31.4587V34.5586C30.9518 34.9792 30.7815 35.3805 30.484 35.678C30.1866 35.9754 29.7854 36.1458 29.3648 36.1532H25.7716C25.3462 36.1519 24.9382 35.9844 24.6344 35.6865C24.3307 35.3886 24.1552 34.9839 24.1454 34.5586V31.4587C24.1473 31.2471 24.1909 31.0378 24.2736 30.8429C24.3564 30.6481 24.4767 30.4714 24.6277 30.3231C24.7787 30.1747 24.9575 30.0576 25.1537 29.9783C25.35 29.8991 25.56 29.8593 25.7716 29.8612ZM29.3648 31.089H25.7716C25.6743 31.0905 25.5814 31.13 25.5129 31.1991C25.4443 31.2682 25.4055 31.3614 25.4048 31.4587V34.5586C25.4055 34.6556 25.4444 34.7485 25.5131 34.8172C25.5817 34.8858 25.6746 34.9247 25.7716 34.9255H29.3648C29.4599 34.9187 29.5494 34.8779 29.6167 34.8105C29.6841 34.7431 29.7249 34.6536 29.7317 34.5586V31.4587C29.725 31.3634 29.6843 31.2735 29.617 31.2056C29.5496 31.1378 29.4602 31.0964 29.3648 31.089ZM38.8187 20.4375C39.1564 20.4261 39.493 20.4827 39.8084 20.6041C40.1238 20.7255 40.4116 20.9091 40.6545 21.144C40.8975 21.3789 41.0907 21.6603 41.2227 21.9715C41.3547 22.2827 41.4227 22.6172 41.4227 22.9552C41.4227 23.2932 41.3547 23.6277 41.2227 23.9389C41.0907 24.2501 40.8975 24.5315 40.6545 24.7664C40.4116 25.0013 40.1238 25.1849 39.8084 25.3063C39.493 25.4277 39.1564 25.4843 38.8187 25.4729C38.1658 25.4508 37.5471 25.1758 37.0931 24.7061C36.639 24.2363 36.3852 23.6085 36.3852 22.9552C36.3852 22.3019 36.639 21.6741 37.0931 21.2043C37.5471 20.7346 38.1658 20.4596 38.8187 20.4375ZM38.8187 21.6653C38.5632 21.6653 38.3134 21.7411 38.1011 21.8831C37.8887 22.0252 37.7232 22.227 37.6255 22.4631C37.5279 22.6993 37.5025 22.9591 37.5526 23.2096C37.6026 23.4602 37.7259 23.6903 37.9067 23.8708C38.0876 24.0513 38.3179 24.174 38.5686 24.2235C38.8192 24.273 39.0789 24.247 39.3148 24.1489C39.5506 24.0507 39.7521 23.8847 39.8936 23.672C40.0351 23.4592 40.1104 23.2093 40.1098 22.9538C40.1075 22.6127 39.9711 22.2863 39.73 22.0452C39.4889 21.804 39.1625 21.6676 38.8216 21.6653H38.8187ZM35.5345 20.9604C36.1469 21.4804 35.3179 22.4049 34.7055 21.8791L30.8986 18.5655C30.6491 18.3567 30.3342 18.2424 30.009 18.2424C29.6837 18.2424 29.3688 18.3567 29.1193 18.5655L24.8502 22.2806C24.7573 22.3583 24.644 22.4077 24.5239 22.4232C24.4038 22.4386 24.2818 22.4194 24.1722 22.3678C24.0626 22.3162 23.9701 22.2343 23.9055 22.1319C23.8409 22.0294 23.8069 21.9106 23.8075 21.7895V20.5617C23.8079 20.5294 23.8018 20.4973 23.7896 20.4673C23.7774 20.4373 23.7593 20.4101 23.7364 20.3872C23.7136 20.3643 23.6863 20.3463 23.6564 20.3341C23.6264 20.3219 23.5943 20.3158 23.562 20.3162H21.5978C21.5655 20.3158 21.5334 20.3219 21.5034 20.3341C21.4735 20.3463 21.4462 20.3643 21.4234 20.3872C21.4005 20.4101 21.3824 20.4373 21.3702 20.4673C21.358 20.4973 21.3519 20.5294 21.3523 20.5617V25.0424C21.334 25.2309 21.2465 25.4059 21.1068 25.5336L18.0364 28.174C17.9755 28.2316 17.9034 28.276 17.8246 28.3043C17.7457 28.3326 17.6619 28.3443 17.5783 28.3386C17.4947 28.3329 17.4132 28.3099 17.339 28.2712C17.2647 28.2324 17.1992 28.1787 17.1468 28.1134C17.0423 27.9894 16.9902 27.8295 17.0015 27.6677C17.0128 27.506 17.0867 27.355 17.2074 27.2467L20.0005 24.8229C20.0296 24.8017 20.0531 24.7738 20.0692 24.7417C20.0853 24.7095 20.0934 24.674 20.093 24.638V20.1919C20.0975 19.9002 20.2155 19.6216 20.4221 19.4156C20.6287 19.2095 20.9075 19.0921 21.1992 19.0884H23.9346C24.1941 19.0817 24.4476 19.1676 24.6497 19.3306C24.8518 19.4935 24.9894 19.7231 25.038 19.9782C25.0391 20.0214 25.0548 20.0629 25.0827 20.096C25.1105 20.129 25.1487 20.1517 25.191 20.1602C25.2305 20.1791 25.2745 20.1864 25.318 20.1813C25.3615 20.1762 25.4026 20.1589 25.4366 20.1313L28.2932 17.6439C28.7634 17.229 29.3689 17 29.996 17C30.623 17 31.2285 17.229 31.6987 17.6439L35.5345 20.9604Z" fill="#00A4C8"/>
<defs>
<linearGradient id="paint0_linear_373_13219" x1="30" y1="0" x2="30" y2="60" gradientUnits="userSpaceOnUse">
<stop stop-color="#65D0FE"/>
<stop offset="1" stop-color="#65D0FE" stop-opacity="0"/>
</linearGradient>
</defs>
</svg>
