<svg width="61" height="60" viewBox="0 0 61 60" fill="none" xmlns="http://www.w3.org/2000/svg">
<circle cx="30.3333" cy="30" r="30" fill="url(#paint0_linear_373_13204)" fill-opacity="0.4"/>
<path d="M29.0732 18C30.6415 18 32.0476 18.653 33.0751 19.6598C34.1026 20.6937 34.7245 22.1086 34.7245 23.6868C34.7245 25.2649 34.1026 26.6798 33.0751 27.7138C32.6154 28.1764 32.0746 28.5573 31.4527 28.8566C31.7772 28.9382 32.1017 29.0471 32.4261 29.1831C32.7506 29.3192 32.9128 29.6729 32.7776 29.9722C32.6425 30.2987 32.2909 30.462 31.9665 30.3259C31.5068 30.1354 31.0201 29.9994 30.5334 29.9178C30.0467 29.8361 29.5599 29.7817 29.0462 29.7817C26.8289 29.7817 24.828 30.6796 23.3408 32.1762C21.8807 33.6455 20.9613 35.659 20.9613 37.8901V39.0057C20.9613 39.2234 21.0425 39.4139 21.1777 39.5499C21.3129 39.686 21.5292 39.7676 21.7725 39.7676H28.5865C28.911 39.7676 29.2084 40.0397 29.2084 40.3934C29.2084 40.7471 28.938 41.0192 28.5865 41.0192H21.8266C21.2588 41.0192 20.745 40.8016 20.3935 40.4206C20.015 40.0669 19.7716 39.5771 19.7716 39.0057V37.8901C19.7716 35.3325 20.8262 32.9652 22.5026 31.2782C23.6383 30.1354 25.0714 29.2919 26.6667 28.8566C26.0718 28.5845 25.531 28.1764 25.0714 27.7138C24.0439 26.6798 23.422 25.2649 23.422 23.6868C23.422 22.1086 24.0439 20.6937 25.0714 19.6598C26.0989 18.653 27.532 18 29.0732 18ZM30.2359 35.8766H29.0191C28.6676 35.8766 28.3972 35.6045 28.3972 35.2508C28.3972 35.0604 28.4784 34.8699 28.6406 34.7611L34.6975 29.2647C34.9408 29.0471 35.2923 29.0471 35.5357 29.2647L41.7007 34.7883C41.9711 35.0059 41.9711 35.4141 41.7548 35.659C41.6196 35.795 41.4574 35.8766 41.2951 35.8766H40.0783V40.8288C40.0783 41.1825 39.8079 41.4546 39.4564 41.4546H36.8606C36.5362 41.4546 36.2387 41.1825 36.2387 40.8288V37.7541H33.9404V40.8288C33.9404 41.1825 33.67 41.4546 33.3184 41.4546H30.8849C30.5334 41.4546 30.263 41.1825 30.263 40.8288V35.8766H30.2359ZM30.6415 34.625H30.8578C31.1823 34.625 31.4797 34.8971 31.4797 35.2508V40.203H32.6965V37.1283C32.6965 36.7746 32.9669 36.5025 33.3184 36.5025H36.8606C37.2121 36.5025 37.4825 36.7746 37.4825 37.1283V40.203H38.8345V35.2508C38.8345 34.9243 39.1049 34.625 39.4564 34.625H39.6727L35.1031 30.5708L30.6415 34.625ZM32.2098 20.5577C31.4257 19.7686 30.317 19.2516 29.1003 19.2516C27.8564 19.2516 26.7749 19.7414 25.9637 20.5577C25.1795 21.3468 24.6658 22.4624 24.6658 23.6868C24.6658 24.9112 25.1525 26.0268 25.9637 26.8159C26.7478 27.605 27.8564 28.1219 29.0732 28.1219C30.29 28.1219 31.3986 27.6322 32.1828 26.8159C32.9669 26.0268 33.4807 24.9112 33.4807 23.6868C33.4807 22.4624 32.994 21.3468 32.2098 20.5577Z" fill="#C015A2"/>
<defs>
<linearGradient id="paint0_linear_373_13204" x1="30.3333" y1="0" x2="30.3333" y2="60" gradientUnits="userSpaceOnUse">
<stop stop-color="#C966B7"/>
<stop offset="0.9999" stop-color="#C966B7" stop-opacity="0.01"/>
<stop offset="1" stop-color="#4A9462" stop-opacity="0"/>
</linearGradient>
</defs>
</svg>
